<svg xmlns="http://www.w3.org/2000/svg" viewBox="0 0 467.95 114.52"><defs><style>.cls-1{fill:#f61068;}</style></defs><title>logo</title><g id="Artboard-1"><path class="cls-1" d="M123.2,232.63H59a2.49,2.49,0,0,0-1.73.73,2.06,2.06,0,0,0-.73,1.65v44.25a2.06,2.06,0,0,0,.73,1.65,2.49,2.49,0,0,0,1.74.73h43.47a2.79,2.79,0,0,0,2-.74,2,2,0,0,0,.74-1.64,2.81,2.81,0,0,0-2.69-2.69h-41V237.39H123.2a2.61,2.61,0,0,0,1.8-.74,2.18,2.18,0,0,0,0-3.28A2.61,2.61,0,0,0,123.2,232.63Z" transform="translate(-56.49 -229.67)"/><path class="cls-1" d="M59,344a2.15,2.15,0,0,0,1.69-.77,2.51,2.51,0,0,0,.77-1.77V296.33A2.51,2.51,0,0,0,59,293.94a2.33,2.33,0,0,0-1.69.77,2.12,2.12,0,0,0-.77,1.61V341.5a2.34,2.34,0,0,0,.81,1.72A2.22,2.22,0,0,0,59,344Z" transform="translate(-56.49 -229.67)"/><path class="cls-1" d="M165.25,312.93h31.39a2.53,2.53,0,1,0,0-5.07H165.25a2.4,2.4,0,0,0-1.8.74,2.36,2.36,0,0,0-.74,1.79,2.54,2.54,0,0,0,2.54,2.53Z" transform="translate(-56.49 -229.67)"/><path class="cls-1" d="M222.43,342.53a2.54,2.54,0,0,0,1.36,1.34,2,2,0,0,0,1.76-.06,2.87,2.87,0,0,0,1.51-1.5,2,2,0,0,0,0-1.79l0-.06L183.33,234a2.45,2.45,0,0,0-4.44,0L134.72,340.46a2.05,2.05,0,0,0,0,1.85,2.86,2.86,0,0,0,1.5,1.5,1.93,1.93,0,0,0,.9.14,2.68,2.68,0,0,0,2.43-1.56l41.59-100.77Z" transform="translate(-56.49 -229.67)"/><path class="cls-1" d="M238,237.7H311a2.58,2.58,0,0,0,2.54-2.46,2.51,2.51,0,0,0-.76-1.86,2.33,2.33,0,0,0-1.78-.75H238a2.36,2.36,0,0,0-1.78.75,2.5,2.5,0,0,0-.76,1.86,2.33,2.33,0,0,0,.76,1.7A2.35,2.35,0,0,0,238,237.7Z" transform="translate(-56.49 -229.67)"/><path class="cls-1" d="M274.28,344a2.26,2.26,0,0,0,1.73-.73,2.43,2.43,0,0,0,.73-1.8V250.38a2.51,2.51,0,0,0-2.46-2.38,2.21,2.21,0,0,0-1.77.69,2.38,2.38,0,0,0-.7,1.69V341.5a2.56,2.56,0,0,0,.7,1.85A2.21,2.21,0,0,0,274.28,344Z" transform="translate(-56.49 -229.67)"/><path class="cls-1" d="M324.29,344h64.32a2.22,2.22,0,0,0,1.71-.68,2.39,2.39,0,0,0,.68-1.78,2.65,2.65,0,0,0-.72-1.9,2.11,2.11,0,0,0-1.67-.72H326.83V283.1h46.24a2.58,2.58,0,0,0,2.54-2.46,2.51,2.51,0,0,0-.76-1.86,2.34,2.34,0,0,0-1.78-.76H324.29a2.13,2.13,0,0,0-1.68.71,2.53,2.53,0,0,0-.71,1.84v61.07a2.29,2.29,0,0,0,2.39,2.39Z" transform="translate(-56.49 -229.67)"/><path class="cls-1" d="M388.61,232.63H324.29a2.21,2.21,0,0,0-1.7.68,2.39,2.39,0,0,0-.68,1.78v27.32a2.51,2.51,0,0,0,.71,1.83,2.13,2.13,0,0,0,1.68.71,2.36,2.36,0,0,0,1.79-.74,2.39,2.39,0,0,0,.75-1.79v-24.7h61.78a2.1,2.1,0,0,0,1.67-.72,2.65,2.65,0,0,0,.72-1.9,2.39,2.39,0,0,0-.68-1.78A2.21,2.21,0,0,0,388.61,232.63Z" transform="translate(-56.49 -229.67)"/><path class="cls-1" d="M523.74,343.47a2.3,2.3,0,0,0,.7-1.83V235.32a2.3,2.3,0,0,0-.7-1.83,2.34,2.34,0,0,0-1.68-.71,2.53,2.53,0,0,0-1.84.71,2.3,2.3,0,0,0-.7,1.83V341.64a2.29,2.29,0,0,0,.7,1.83A2.49,2.49,0,0,0,523.74,343.47Z" transform="translate(-56.49 -229.67)"/><path class="cls-1" d="M505.12,303.15l-.8-.53.19-.94a50.08,50.08,0,0,0-23.14-53,2.42,2.42,0,0,0-1.84-.29,2.39,2.39,0,0,0-.7,4.37A45.32,45.32,0,0,1,500,299.67l-.23,1.28-1.3-.1c-.37,0-.73,0-1.11,0a14,14,0,1,0,7.78,2.35Zm-7.78,20.71a9.13,9.13,0,1,1,9.19-9.13A9.17,9.17,0,0,1,497.33,323.86Z" transform="translate(-56.49 -229.67)"/><path class="cls-1" d="M476.07,338.92a2.4,2.4,0,0,0,0-1.85,2.43,2.43,0,0,0-3.16-1.29h0a45.92,45.92,0,0,1-17.54,3.47A46.6,46.6,0,0,1,424.13,327l-1-.89.8-1a13.72,13.72,0,0,0,2.88-8.44,14,14,0,1,0-14,13.94,14.17,14.17,0,0,0,5.57-1.16l.89-.38.69.67A51.34,51.34,0,0,0,455.36,344a50.62,50.62,0,0,0,19.38-3.82A2.38,2.38,0,0,0,476.07,338.92Zm-63.22-13.14a9.13,9.13,0,1,1,9.18-9.13A9.17,9.17,0,0,1,412.84,325.78Z" transform="translate(-56.49 -229.67)"/><path class="cls-1" d="M454.8,229.67a14.1,14.1,0,0,0-13.94,12.57l-.09,1-.92.28a50.76,50.76,0,0,0-35.65,44.6,2.39,2.39,0,0,0,2.21,2.56h.28a2.42,2.42,0,0,0,2.33-2.24,45.43,45.43,0,0,1,31.18-40l1.25-.41.53,1.2a14,14,0,1,0,12.82-19.51Zm0,23.07a9.13,9.13,0,1,1,9.19-9.13A9.17,9.17,0,0,1,454.8,252.74Z" transform="translate(-56.49 -229.67)"/></g></svg>