<?xml version="1.0" encoding="utf-8"?>
<!-- Generator: Adobe Illustrator 21.1.0, SVG Export Plug-In . SVG Version: 6.00 Build 0)  -->
<svg version="1.1" id="Layer_1" xmlns="http://www.w3.org/2000/svg" xmlns:xlink="http://www.w3.org/1999/xlink" x="0px" y="0px"
	 viewBox="0 0 468 114.5" style="enable-background:new 0 0 468 114.5;" xml:space="preserve">
<style type="text/css">
	.st0{fill:#00CDFF;}
</style>
<title>logo</title>
<g id="Artboard-1">
	<path class="st0" d="M66.7,3H2.5C1.9,3,1.2,3.2,0.8,3.7C0.3,4.1,0,4.7,0,5.3v44.3c0,0.6,0.2,1.2,0.7,1.6C1.2,51.7,1.9,52,2.5,52H46
		c0.7,0,1.5-0.2,2-0.7c0.5-0.4,0.8-1,0.7-1.6c-0.1-1.5-1.2-2.6-2.7-2.7H5V7.7h61.7c0.7,0,1.3-0.3,1.8-0.7c0.9-0.8,1-2.2,0.2-3.1
		c-0.1-0.1-0.1-0.1-0.2-0.2C68,3.2,67.4,3,66.7,3z"/>
	<path class="st0" d="M2.5,114.3c0.7,0,1.3-0.3,1.7-0.8c0.5-0.5,0.8-1.1,0.8-1.8V66.7c-0.1-1.3-1.1-2.4-2.5-2.4
		c-0.6,0-1.3,0.3-1.7,0.8c-0.5,0.4-0.8,1-0.8,1.6v45.2c0,0.7,0.3,1.3,0.8,1.7C1.3,114,1.9,114.3,2.5,114.3z"/>
	<path class="st0" d="M108.8,83.3h31.4c1.4,0,2.5-1.1,2.5-2.5s-1.1-2.5-2.5-2.5h-31.4c-0.7,0-1.3,0.3-1.8,0.7
		c-0.5,0.5-0.8,1.1-0.7,1.8C106.2,82.1,107.4,83.2,108.8,83.3L108.8,83.3z"/>
	<path class="st0" d="M165.9,112.9c0.3,0.6,0.7,1.1,1.4,1.3c0.6,0.3,1.2,0.2,1.8-0.1c0.7-0.3,1.2-0.8,1.5-1.5c0.3-0.6,0.3-1.2,0-1.8
		v-0.1L126.8,4.3c-0.6-1.2-2-1.8-3.3-1.2c-0.5,0.2-0.9,0.7-1.2,1.2L78.2,110.8c-0.3,0.6-0.3,1.3,0,1.9c0.3,0.7,0.8,1.2,1.5,1.5
		c0.3,0.1,0.6,0.2,0.9,0.1c1,0,2-0.6,2.4-1.6L124.6,12L165.9,112.9z"/>
	<path class="st0" d="M181.5,8h73c1.4,0,2.5-1.1,2.5-2.5c0-0.7-0.3-1.4-0.8-1.9c-0.5-0.5-1.1-0.8-1.8-0.8h-73
		c-0.7,0-1.3,0.3-1.8,0.8c-0.5,0.5-0.8,1.2-0.8,1.9c0,0.6,0.3,1.3,0.8,1.7C180.2,7.8,180.8,8,181.5,8z"/>
	<path class="st0" d="M217.8,114.3c0.7,0,1.3-0.2,1.7-0.7c0.5-0.5,0.7-1.1,0.7-1.8V20.7c-0.1-1.3-1.1-2.4-2.5-2.4
		c-0.7,0-1.3,0.2-1.8,0.7c-0.4,0.4-0.7,1.1-0.7,1.7v91.1c0,0.7,0.2,1.4,0.7,1.9C216.5,114.2,217.1,114.4,217.8,114.3z"/>
	<path class="st0" d="M267.8,114.3h64.3c0.6,0,1.3-0.2,1.7-0.7c0.5-0.5,0.7-1.1,0.7-1.8c0-0.7-0.2-1.4-0.7-1.9
		c-0.4-0.5-1-0.7-1.7-0.7h-61.8V53.4h46.2c1.4,0,2.5-1.1,2.5-2.5c0-0.7-0.3-1.4-0.8-1.9c-0.5-0.5-1.1-0.8-1.8-0.8h-48.8
		c-0.6,0-1.3,0.2-1.7,0.7c-0.5,0.5-0.7,1.2-0.7,1.8V112c-0.1,1.3,0.9,2.3,2.2,2.4C267.7,114.4,267.7,114.4,267.8,114.3L267.8,114.3z
		"/>
	<path class="st0" d="M332.1,3h-64.3c-0.6,0-1.3,0.2-1.7,0.7c-0.5,0.5-0.7,1.1-0.7,1.8v27.3c0,0.7,0.2,1.3,0.7,1.8
		c0.4,0.5,1,0.7,1.7,0.7c0.7,0,1.3-0.2,1.8-0.7c0.5-0.5,0.8-1.1,0.8-1.8V8h61.8c0.6,0,1.3-0.2,1.7-0.7c0.5-0.5,0.7-1.2,0.7-1.9
		c0-0.7-0.2-1.3-0.7-1.8C333.4,3.2,332.8,2.9,332.1,3z"/>
	<path class="st0" d="M467.3,113.8c0.5-0.5,0.8-1.1,0.7-1.8V5.7c0.1-0.7-0.2-1.4-0.7-1.8c-0.4-0.5-1-0.7-1.7-0.7
		c-0.7,0-1.3,0.2-1.8,0.7C463.2,4.3,463,5,463,5.7V112c-0.1,0.7,0.2,1.4,0.7,1.8C464.7,114.8,466.3,114.8,467.3,113.8z"/>
	<path class="st0" d="M448.6,73.5l-0.8-0.5L448,72c4.3-20.8-5-42-23.1-53c-0.6-0.3-1.2-0.4-1.8-0.3c-1.3,0.3-2.1,1.6-1.8,2.9
		c0.1,0.6,0.5,1.2,1.1,1.5c16.1,9.7,24.5,28.4,21.2,46.9l-0.2,1.3l-1.3-0.1c-0.4,0-0.7,0-1.1,0c-7.7,0-14,6.3-14,14
		c0,7.7,6.3,14,14,14c7.7,0,14-6.3,14-14C454.9,80.5,452.5,76.1,448.6,73.5L448.6,73.5z M440.9,94.2c-5,0-9.1-4.1-9.1-9.2
		c0-5,4.1-9.1,9.2-9.1c5,0,9.1,4.1,9.1,9.1C450,90.1,445.9,94.2,440.9,94.2L440.9,94.2z"/>
	<path class="st0" d="M419.6,109.3c0.2-0.6,0.2-1.3,0-1.9c-0.5-1.2-1.9-1.8-3.2-1.3l0,0c-5.6,2.3-11.5,3.5-17.5,3.5
		c-11.6-0.1-22.7-4.4-31.2-12.3l-1-0.9l0.8-1c1.9-2.4,2.9-5.4,2.9-8.4c0-7.7-6.2-14-13.9-14.1c-7.7,0-14,6.2-14.1,13.9
		c0,7.7,6.2,14,13.9,14.1c0,0,0,0,0.1,0c1.9,0,3.8-0.4,5.6-1.2l0.9-0.4l0.7,0.7c9.5,9.1,22.2,14.2,35.4,14.3
		c6.6,0,13.2-1.3,19.4-3.8C418.8,110.3,419.3,109.8,419.6,109.3z M356.4,96.1c-5,0-9.1-4.1-9.1-9.2c0-5,4.1-9.1,9.2-9.1
		c5,0,9.1,4.1,9.1,9.1C365.5,92,361.4,96.1,356.4,96.1L356.4,96.1z"/>
	<path class="st0" d="M398.3,0c-7.2,0-13.2,5.4-13.9,12.6l-0.1,1l-0.9,0.3c-19.9,6.1-34,23.8-35.6,44.6c-0.1,1.3,0.9,2.5,2.2,2.6
		c0,0,0,0,0,0h0.3c1.2,0,2.2-1,2.3-2.2c1.3-18.4,13.6-34.2,31.2-40l1.3-0.4l0.5,1.2c3,7.1,11.3,10.4,18.4,7.4
		c7.1-3,10.4-11.3,7.4-18.4C409,3.4,403.9,0,398.3,0L398.3,0z M398.3,23.1c-5,0-9.1-4.1-9.1-9.2s4.1-9.1,9.2-9.1
		c5,0,9.1,4.1,9.1,9.1C407.5,19,403.4,23.1,398.3,23.1L398.3,23.1z"/>
</g>
</svg>
